{
	"asset":{
		"version":"2.0",
		"generator":"Created using the official Cinema 4D glTF Exporter 1.000x284978"
	},
	"bufferViews":[{
		"buffer":0,
		"byteLength":17136,
		"byteOffset":0,
		"target":34963
	},
	{
		"buffer":0,
		"byteLength":49536,
		"byteOffset":17136,
		"target":34962,
		"byteStride":32
	},
	{
		"buffer":1,
		"byteLength":52992,
		"byteOffset":0,
		"target":34963
	},
	{
		"buffer":1,
		"byteLength":148768,
		"byteOffset":52992,
		"target":34962,
		"byteStride":32
	},
	{
		"buffer":2,
		"byteLength":3168,
		"byteOffset":0,
		"target":34963
	},
	{
		"buffer":2,
		"byteLength":10336,
		"byteOffset":3168,
		"target":34962,
		"byteStride":32
	},
	{
		"buffer":3,
		"byteLength":3168,
		"byteOffset":0,
		"target":34963
	},
	{
		"buffer":3,
		"byteLength":10336,
		"byteOffset":3168,
		"target":34962,
		"byteStride":32
	},
	{
		"buffer":4,
		"byteLength":768,
		"byteOffset":0,
		"target":34963
	},
	{
		"buffer":4,
		"byteLength":2592,
		"byteOffset":768,
		"target":34962,
		"byteStride":32
	},
	{
		"buffer":5,
		"byteLength":768,
		"byteOffset":0,
		"target":34963
	},
	{
		"buffer":5,
		"byteLength":2592,
		"byteOffset":768,
		"target":34962,
		"byteStride":32
	},
	{
		"buffer":6,
		"byteLength":768,
		"byteOffset":0,
		"target":34963
	},
	{
		"buffer":6,
		"byteLength":2592,
		"byteOffset":768,
		"target":34962,
		"byteStride":32
	},
	{
		"buffer":7,
		"byteLength":768,
		"byteOffset":0,
		"target":34963
	},
	{
		"buffer":7,
		"byteLength":2592,
		"byteOffset":768,
		"target":34962,
		"byteStride":32
	},
	{
		"buffer":8,
		"byteLength":768,
		"byteOffset":0,
		"target":34963
	},
	{
		"buffer":8,
		"byteLength":2592,
		"byteOffset":768,
		"target":34962,
		"byteStride":32
	},
	{
		"buffer":9,
		"byteLength":768,
		"byteOffset":0,
		"target":34963
	},
	{
		"buffer":9,
		"byteLength":2592,
		"byteOffset":768,
		"target":34962,
		"byteStride":32
	},
	{
		"buffer":10,
		"byteLength":768,
		"byteOffset":0,
		"target":34963
	},
	{
		"buffer":10,
		"byteLength":2592,
		"byteOffset":768,
		"target":34962,
		"byteStride":32
	}],
	"scenes":[{
		"nodes":[0,
		2]
	}],
	"meshes":[{
		"name":"Stem",
		"primitives":[{
			"attributes":{
				"POSITION":1,
				"NORMAL":2,
				"TEXCOORD_0":3
			},
			"indices":0,
			"material":0
		}]
	},
	{
		"name":"Middle.2",
		"primitives":[{
			"attributes":{
				"POSITION":5,
				"NORMAL":6,
				"TEXCOORD_0":7
			},
			"indices":4,
			"material":1
		}]
	},
	{
		"name":"Middle.1",
		"primitives":[{
			"attributes":{
				"POSITION":9,
				"NORMAL":10,
				"TEXCOORD_0":11
			},
			"indices":8,
			"material":0
		}]
	},
	{
		"name":"Middle",
		"primitives":[{
			"attributes":{
				"POSITION":13,
				"NORMAL":14,
				"TEXCOORD_0":15
			},
			"indices":12,
			"material":1
		}]
	},
	{
		"name":"Plane 0.1",
		"primitives":[{
			"attributes":{
				"POSITION":17,
				"NORMAL":18,
				"TEXCOORD_0":19
			},
			"indices":16,
			"material":2
		}]
	},
	{
		"name":"Plane 0.3",
		"primitives":[{
			"attributes":{
				"POSITION":21,
				"NORMAL":22,
				"TEXCOORD_0":23
			},
			"indices":20,
			"material":2
		}]
	},
	{
		"name":"Plane 0.4",
		"primitives":[{
			"attributes":{
				"POSITION":25,
				"NORMAL":26,
				"TEXCOORD_0":27
			},
			"indices":24,
			"material":2
		}]
	},
	{
		"name":"Plane 0.5",
		"primitives":[{
			"attributes":{
				"POSITION":29,
				"NORMAL":30,
				"TEXCOORD_0":31
			},
			"indices":28,
			"material":2
		}]
	},
	{
		"name":"Plane 0.6",
		"primitives":[{
			"attributes":{
				"POSITION":33,
				"NORMAL":34,
				"TEXCOORD_0":35
			},
			"indices":32,
			"material":2
		}]
	},
	{
		"name":"Plane 0.7",
		"primitives":[{
			"attributes":{
				"POSITION":37,
				"NORMAL":38,
				"TEXCOORD_0":39
			},
			"indices":36,
			"material":2
		}]
	},
	{
		"name":"Plane 0.8",
		"primitives":[{
			"attributes":{
				"POSITION":41,
				"NORMAL":42,
				"TEXCOORD_0":43
			},
			"indices":40,
			"material":2
		}]
	}],
	"nodes":[{
		"name":"Stem",
		"translation":[1.3141441345214844,
		-3.5320589542388918,
		0.23030751943588258],
		"rotation":[0.0,
		0.0,
		0.3663947284221649,
		0.9304594993591309],
		"scale":[1.0,
		1.0,
		1.0],
		"children":[1]
	},
	{
		"name":"Stem",
		"mesh":0
	},
	{
		"name":"Flower",
		"translation":[6.3549485430371668e-15,
		1.4987105131149293,
		0.06494823098182678],
		"rotation":[0.7071067690849304,
		0.0,
		0.0,
		-0.7071067690849304],
		"scale":[0.4067392945289612,
		0.4067392945289612,
		0.4067392945289612],
		"children":[3,
		5,
		6,
		7,
		8,
		9,
		10,
		11,
		12,
		13]
	},
	{
		"name":"Subdivision Surface",
		"translation":[-0.003969199955463409,
		-0.009691308252513409,
		-3.558889389038086],
		"rotation":[-0.7071067690849304,
		0.0,
		0.0,
		-0.7071067690849304],
		"scale":[2.4585773944854738,
		2.4585773944854738,
		2.4585773944854738],
		"children":[4]
	},
	{
		"name":"Middle.2",
		"translation":[6.3549485430371668e-15,
		1.6699299812316895,
		1.0225371813086563e-16],
		"rotation":[0.7071067690849304,
		0.0,
		0.0,
		-0.7071067690849304],
		"scale":[0.4067392945289612,
		0.4067392945289612,
		0.4067392945289612],
		"mesh":1
	},
	{
		"name":"Middle.1",
		"translation":[0.0,
		2.482523698315147e-31,
		0.08781389147043228],
		"rotation":[0.0,
		0.0,
		0.0,
		-1.0],
		"scale":[1.0,
		1.0,
		1.0],
		"mesh":2
	},
	{
		"name":"Middle",
		"mesh":3
	},
	{
		"name":"Plane 0.1",
		"mesh":4
	},
	{
		"name":"Plane 0.3",
		"mesh":5
	},
	{
		"name":"Plane 0.4",
		"mesh":6
	},
	{
		"name":"Plane 0.5",
		"mesh":7
	},
	{
		"name":"Plane 0.6",
		"mesh":8
	},
	{
		"name":"Plane 0.7",
		"mesh":9
	},
	{
		"name":"Plane 0.8",
		"mesh":10
	}],
	"accessors":[{
		"bufferView":0,
		"type":"SCALAR",
		"componentType":5123,
		"count":8568,
		"byteOffset":0,
		"min":[0],
		"max":[1547]
	},
	{
		"bufferView":1,
		"type":"VEC3",
		"componentType":5126,
		"count":1548,
		"byteOffset":0,
		"min":[-0.12193670868873596,
		-3.0277721881866457,
		-0.12351971119642258],
		"max":[2.46341872215271,
		4.602340221405029,
		0.12351971119642258]
	},
	{
		"bufferView":1,
		"type":"VEC3",
		"componentType":5126,
		"count":1548,
		"byteOffset":12,
		"min":[-0.9924978017807007,
		-1.0,
		-0.9995449781417847],
		"max":[1.0,
		0.7313719987869263,
		0.9995448589324951]
	},
	{
		"bufferView":1,
		"type":"VEC2",
		"componentType":5126,
		"count":1548,
		"byteOffset":24,
		"min":[0.0,
		0.0],
		"max":[1.0,
		1.0]
	},
	{
		"bufferView":2,
		"type":"SCALAR",
		"componentType":5123,
		"count":26496,
		"byteOffset":0,
		"min":[0],
		"max":[4648]
	},
	{
		"bufferView":3,
		"type":"VEC3",
		"componentType":5126,
		"count":4649,
		"byteOffset":0,
		"min":[-1.7376987934112549,
		-2.106820583343506,
		-0.5343137979507446],
		"max":[1.7376987934112549,
		1.1418662071228028,
		0.5343139171600342]
	},
	{
		"bufferView":3,
		"type":"VEC3",
		"componentType":5126,
		"count":4649,
		"byteOffset":12,
		"min":[-0.9999999403953552,
		-1.0,
		-1.0],
		"max":[0.9999999403953552,
		1.0,
		1.0]
	},
	{
		"bufferView":3,
		"type":"VEC2",
		"componentType":5126,
		"count":4649,
		"byteOffset":24,
		"min":[0.0,
		0.026041660457849504],
		"max":[1.0,
		0.9739582538604736]
	},
	{
		"bufferView":4,
		"type":"SCALAR",
		"componentType":5123,
		"count":1584,
		"byteOffset":0,
		"min":[0],
		"max":[322]
	},
	{
		"bufferView":5,
		"type":"VEC3",
		"componentType":5126,
		"count":323,
		"byteOffset":0,
		"min":[-1.5367852449417115,
		-1.9835858345031739,
		-0.6273544430732727],
		"max":[1.5367852449417115,
		1.0899847745895386,
		0.627354621887207]
	},
	{
		"bufferView":5,
		"type":"VEC3",
		"componentType":5126,
		"count":323,
		"byteOffset":12,
		"min":[-1.0,
		-1.0,
		-1.0],
		"max":[1.0,
		1.0,
		1.0]
	},
	{
		"bufferView":5,
		"type":"VEC2",
		"componentType":5126,
		"count":323,
		"byteOffset":24,
		"min":[0.0,
		0.0],
		"max":[1.0,
		1.0]
	},
	{
		"bufferView":6,
		"type":"SCALAR",
		"componentType":5123,
		"count":1584,
		"byteOffset":0,
		"min":[0],
		"max":[322]
	},
	{
		"bufferView":7,
		"type":"VEC3",
		"componentType":5126,
		"count":323,
		"byteOffset":0,
		"min":[-1.5367852449417115,
		-1.9835858345031739,
		-1.5367851257324219],
		"max":[1.5367852449417115,
		1.0899847745895386,
		1.536785364151001]
	},
	{
		"bufferView":7,
		"type":"VEC3",
		"componentType":5126,
		"count":323,
		"byteOffset":12,
		"min":[-1.0,
		-1.0,
		-1.0],
		"max":[1.0,
		1.0,
		1.0]
	},
	{
		"bufferView":7,
		"type":"VEC2",
		"componentType":5126,
		"count":323,
		"byteOffset":24,
		"min":[0.0,
		0.0],
		"max":[1.0,
		1.0]
	},
	{
		"bufferView":8,
		"type":"SCALAR",
		"componentType":5123,
		"count":384,
		"byteOffset":0,
		"min":[0],
		"max":[80]
	},
	{
		"bufferView":9,
		"type":"VEC3",
		"componentType":5126,
		"count":81,
		"byteOffset":0,
		"min":[-1.872365117073059,
		0.8160678148269653,
		0.0015932483365759254],
		"max":[1.872365117073059,
		7.72378396987915,
		2.4877333641052248]
	},
	{
		"bufferView":9,
		"type":"VEC3",
		"componentType":5126,
		"count":81,
		"byteOffset":12,
		"min":[-0.26562780141830447,
		-0.47189244627952578,
		0.8594967126846314],
		"max":[0.26562848687171938,
		-0.04367890954017639,
		0.9926382899284363]
	},
	{
		"bufferView":9,
		"type":"VEC2",
		"componentType":5126,
		"count":81,
		"byteOffset":24,
		"min":[0.0,
		0.0],
		"max":[1.0,
		1.0]
	},
	{
		"bufferView":10,
		"type":"SCALAR",
		"componentType":5123,
		"count":384,
		"byteOffset":0,
		"min":[0],
		"max":[80]
	},
	{
		"bufferView":11,
		"type":"VEC3",
		"componentType":5126,
		"count":81,
		"byteOffset":0,
		"min":[-6.620077610015869,
		-0.2129853218793869,
		0.001593281514942646],
		"max":[-0.6008755564689636,
		5.213883399963379,
		2.4877333641052248]
	},
	{
		"bufferView":11,
		"type":"VEC3",
		"componentType":5126,
		"count":81,
		"byteOffset":12,
		"min":[-0.1314634084701538,
		-0.46451130509376528,
		0.8594968318939209],
		"max":[0.4924033582210541,
		0.18044275045394898,
		0.992638349533081]
	},
	{
		"bufferView":11,
		"type":"VEC2",
		"componentType":5126,
		"count":81,
		"byteOffset":24,
		"min":[0.0,
		0.0],
		"max":[1.0,
		1.0]
	},
	{
		"bufferView":12,
		"type":"SCALAR",
		"componentType":5123,
		"count":384,
		"byteOffset":0,
		"min":[0],
		"max":[80]
	},
	{
		"bufferView":13,
		"type":"VEC3",
		"componentType":5126,
		"count":81,
		"byteOffset":0,
		"min":[-7.926311492919922,
		-3.5710833072662355,
		0.0015932016540318728],
		"max":[-1.122944712638855,
		0.494954913854599,
		2.4877331256866457]
	},
	{
		"bufferView":13,
		"type":"VEC3",
		"componentType":5126,
		"count":81,
		"byteOffset":12,
		"min":[-0.01652330346405506,
		-0.24924561381340028,
		0.8594968318939209],
		"max":[0.50376957654953,
		0.3414159119129181,
		0.992638349533081]
	},
	{
		"bufferView":13,
		"type":"VEC2",
		"componentType":5126,
		"count":81,
		"byteOffset":24,
		"min":[0.0,
		0.0],
		"max":[1.0,
		1.0]
	},
	{
		"bufferView":14,
		"type":"SCALAR",
		"componentType":5123,
		"count":384,
		"byteOffset":0,
		"min":[0],
		"max":[80]
	},
	{
		"bufferView":15,
		"type":"VEC3",
		"componentType":5126,
		"count":81,
		"byteOffset":0,
		"min":[-4.455962181091309,
		-7.828632831573486,
		0.0015931776724755765],
		"max":[0.2947682738304138,
		-1.3061106204986573,
		2.4877331256866457]
	},
	{
		"bufferView":15,
		"type":"VEC3",
		"componentType":5126,
		"count":81,
		"byteOffset":12,
		"min":[-0.2203698307275772,
		-0.07589538395404816,
		0.8594967126846314],
		"max":[0.4133268892765045,
		0.5103861093521118,
		0.992638349533081]
	},
	{
		"bufferView":15,
		"type":"VEC2",
		"componentType":5126,
		"count":81,
		"byteOffset":24,
		"min":[0.0,
		0.0],
		"max":[1.0,
		1.0]
	},
	{
		"bufferView":16,
		"type":"SCALAR",
		"componentType":5123,
		"count":384,
		"byteOffset":0,
		"min":[0],
		"max":[80]
	},
	{
		"bufferView":17,
		"type":"VEC3",
		"componentType":5126,
		"count":81,
		"byteOffset":0,
		"min":[-0.2947687804698944,
		-7.828632354736328,
		0.0015931776724755765],
		"max":[4.455961227416992,
		-1.3061107397079468,
		2.4877331256866457]
	},
	{
		"bufferView":17,
		"type":"VEC3",
		"componentType":5126,
		"count":81,
		"byteOffset":12,
		"min":[-0.413326621055603,
		-0.07589628547430039,
		0.8594967126846314],
		"max":[0.22036761045455934,
		0.510386049747467,
		0.9926384091377258]
	},
	{
		"bufferView":17,
		"type":"VEC2",
		"componentType":5126,
		"count":81,
		"byteOffset":24,
		"min":[0.0,
		0.0],
		"max":[1.0,
		1.0]
	},
	{
		"bufferView":18,
		"type":"SCALAR",
		"componentType":5123,
		"count":384,
		"byteOffset":0,
		"min":[0],
		"max":[80]
	},
	{
		"bufferView":19,
		"type":"VEC3",
		"componentType":5126,
		"count":81,
		"byteOffset":0,
		"min":[1.122944712638855,
		-3.571082592010498,
		0.0015932911774143577],
		"max":[7.926311492919922,
		0.4949547350406647,
		2.4877336025238039]
	},
	{
		"bufferView":19,
		"type":"VEC3",
		"componentType":5126,
		"count":81,
		"byteOffset":12,
		"min":[-0.5037698149681091,
		-0.24924710392951966,
		0.8594968318939209],
		"max":[0.016522087156772615,
		0.34141600131988528,
		0.9926382899284363]
	},
	{
		"bufferView":19,
		"type":"VEC2",
		"componentType":5126,
		"count":81,
		"byteOffset":24,
		"min":[0.0,
		0.0],
		"max":[1.0,
		1.0]
	},
	{
		"bufferView":20,
		"type":"SCALAR",
		"componentType":5123,
		"count":384,
		"byteOffset":0,
		"min":[0],
		"max":[80]
	},
	{
		"bufferView":21,
		"type":"VEC3",
		"componentType":5126,
		"count":81,
		"byteOffset":0,
		"min":[0.6008751392364502,
		-0.2129850536584854,
		0.0015932612586766482],
		"max":[6.620077610015869,
		5.213883876800537,
		2.487733840942383]
	},
	{
		"bufferView":21,
		"type":"VEC3",
		"componentType":5126,
		"count":81,
		"byteOffset":12,
		"min":[-0.49240344762802126,
		-0.46451130509376528,
		0.8594970107078552],
		"max":[0.1314641535282135,
		0.18044115602970124,
		0.992638349533081]
	},
	{
		"bufferView":21,
		"type":"VEC2",
		"componentType":5126,
		"count":81,
		"byteOffset":24,
		"min":[0.0,
		0.0],
		"max":[1.0,
		1.0]
	}],
	"materials":[{
		"pbrMetallicRoughness":{
			"baseColorFactor":[0.22109999999999978,
			0.66,
			0.19799999999999996,
			1.0],
			"metallicFactor":0.0,
			"roughnessFactor":0.5
		},
		"emissiveFactor":[0.0,
		0.0,
		0.0],
		"alphaMode":"OPAQUE",
		"doubleSided":true,
		"name":"Mat"
	},
	{
		"pbrMetallicRoughness":{
			"baseColorFactor":[0.99,
			0.7629600000000001,
			0.1386,
			1.0],
			"metallicFactor":0.0,
			"roughnessFactor":0.5
		},
		"emissiveFactor":[0.0,
		0.0,
		0.0],
		"alphaMode":"OPAQUE",
		"doubleSided":true,
		"name":"Mat"
	},
	{
		"pbrMetallicRoughness":{
			"baseColorFactor":[0.99,
			0.7629600000000001,
			0.1386,
			1.0],
			"metallicFactor":0.0,
			"roughnessFactor":0.5
		},
		"emissiveFactor":[0.0,
		0.0,
		0.0],
		"alphaMode":"OPAQUE",
		"doubleSided":true,
		"name":"Mat"
	}],
	"buffers":[{
		"uri":"data:application/octet-stream;base64,",
		"byteLength":66672
	},
	{
		"uri":"data:application/octet-stream;base64,",
		"byteLength":201760
	},
	{
		"uri":"data:application/octet-stream;base64,",
		"byteLength":13504
	},
	{
		"uri":"data:application/octet-stream;base64,",
		"byteLength":13504
	},
	{
		"uri":"data:application/octet-stream;base64,",
		"byteLength":3360
	},
	{
		"uri":"data:application/octet-stream;base64,",
		"byteLength":3360
	},
	{
		"uri":"data:application/octet-stream;base64,",
		"byteLength":3360
	},
	{
		"uri":"data:application/octet-stream;base64,",
		"byteLength":3360
	},
	{
		"uri":"data:application/octet-stream;base64,",
		"byteLength":3360
	},
	{
		"uri":"data:application/octet-stream;base64,",
		"byteLength":3360
	},
	{
		"uri":"data:application/octet-stream;base64,",
		"byteLength":3360
	}]
}